<?xml version="1.0" encoding="utf-8"?>
<!-- Generator: Adobe Illustrator 27.7.0, SVG Export Plug-In . SVG Version: 6.00 Build 0)  -->
<svg version="1.1" id="Layer_1" xmlns="http://www.w3.org/2000/svg" xmlns:xlink="http://www.w3.org/1999/xlink" x="0px" y="0px"
	 viewBox="0 0 256 256" style="enable-background:new 0 0 256 256;" xml:space="preserve">
<style type="text/css">
	.st0{fill:#FFFFFF;}
</style>
<circle cx="127.82" cy="128.29" r="124.95"/>
<g>
	<path class="st0" d="M55.6,163.55V93.27c0-1.41,0.71-2.12,2.12-2.12h23.6c7.07,0,13.55,1.64,19.44,4.93
		c5.89,3.29,10.54,7.79,13.95,13.5c3.41,5.71,5.12,12.01,5.12,18.91c0,6.86-1.71,13.13-5.12,18.8c-3.41,5.67-8.04,10.16-13.9,13.45
		c-5.85,3.29-12.3,4.93-19.33,4.93H57.72C56.31,165.67,55.6,164.96,55.6,163.55z M96.09,152.92c4.33-2.49,7.75-5.89,10.26-10.18
		c2.51-4.3,3.77-9.04,3.77-14.24c0-5.23-1.26-10.02-3.79-14.35c-2.53-4.33-5.98-7.74-10.34-10.24c-4.37-2.49-9.18-3.74-14.45-3.74
		H65.15v56.49h16.6C86.98,156.65,91.76,155.41,96.09,152.92z"/>
	<path class="st0" d="M149.21,161.77c-5.87-3.41-10.5-8.06-13.9-13.95c-3.39-5.89-5.09-12.37-5.09-19.44
		c0-7.07,1.7-13.55,5.09-19.44c3.4-5.89,8.03-10.53,13.9-13.92c5.87-3.39,12.32-5.09,19.36-5.09c7.07,0,13.54,1.7,19.41,5.09
		c5.87,3.39,10.5,8.04,13.9,13.92c3.39,5.89,5.09,12.37,5.09,19.44c0,7.07-1.7,13.55-5.09,19.44c-3.39,5.89-8.03,10.54-13.9,13.95
		c-5.87,3.41-12.34,5.12-19.41,5.12C161.53,166.89,155.08,165.19,149.21,161.77z M182.95,153.79c4.38-2.58,7.87-6.1,10.45-10.55
		c2.58-4.46,3.87-9.39,3.87-14.8c0-5.41-1.29-10.36-3.87-14.85c-2.58-4.49-6.06-8.03-10.45-10.61c-4.39-2.58-9.18-3.87-14.37-3.87
		c-5.16,0-9.94,1.29-14.32,3.87c-4.38,2.58-7.87,6.12-10.45,10.61c-2.58,4.49-3.87,9.44-3.87,14.85c0,5.38,1.29,10.3,3.87,14.77
		c2.58,4.47,6.06,8,10.45,10.58c4.38,2.58,9.16,3.87,14.32,3.87C173.77,157.66,178.56,156.37,182.95,153.79z"/>
</g>
</svg>
