<?xml version="1.0" encoding="utf-8"?>
<!-- Generator: Adobe Illustrator 27.7.0, SVG Export Plug-In . SVG Version: 6.00 Build 0)  -->
<svg version="1.1" id="Layer_1" xmlns="http://www.w3.org/2000/svg" xmlns:xlink="http://www.w3.org/1999/xlink" x="0px" y="0px"
	 viewBox="0 0 32 32" style="enable-background:new 0 0 32 32;" xml:space="preserve">
<style type="text/css">
	.st0{fill:#FFFFFF;}
</style>
<g>
	<circle cx="16.1" cy="16.01" r="15.55"/>
	<g>
		<path class="st0" d="M7.11,20.4v-8.75c0-0.18,0.09-0.26,0.26-0.26h2.94c0.88,0,1.69,0.2,2.42,0.61c0.73,0.41,1.31,0.97,1.74,1.68
			c0.42,0.71,0.64,1.5,0.64,2.35c0,0.85-0.21,1.63-0.64,2.34c-0.42,0.71-1,1.26-1.73,1.67c-0.73,0.41-1.53,0.61-2.41,0.61H7.37
			C7.2,20.66,7.11,20.57,7.11,20.4z M12.15,19.07c0.54-0.31,0.96-0.73,1.28-1.27c0.31-0.53,0.47-1.13,0.47-1.77
			c0-0.65-0.16-1.25-0.47-1.79c-0.31-0.54-0.74-0.96-1.29-1.27c-0.54-0.31-1.14-0.47-1.8-0.47H8.3v7.03h2.07
			C11.01,19.54,11.61,19.38,12.15,19.07z"/>
		<path class="st0" d="M18.76,20.18c-0.73-0.42-1.31-1-1.73-1.74c-0.42-0.73-0.63-1.54-0.63-2.42c0-0.88,0.21-1.69,0.63-2.42
			c0.42-0.73,1-1.31,1.73-1.73c0.73-0.42,1.53-0.63,2.41-0.63c0.88,0,1.69,0.21,2.42,0.63c0.73,0.42,1.31,1,1.73,1.73
			c0.42,0.73,0.63,1.54,0.63,2.42c0,0.88-0.21,1.69-0.63,2.42c-0.42,0.73-1,1.31-1.73,1.74c-0.73,0.42-1.54,0.64-2.42,0.64
			C20.3,20.81,19.49,20.6,18.76,20.18z M22.96,19.18c0.55-0.32,0.98-0.76,1.3-1.31c0.32-0.55,0.48-1.17,0.48-1.84
			c0-0.67-0.16-1.29-0.48-1.85c-0.32-0.56-0.75-1-1.3-1.32c-0.55-0.32-1.14-0.48-1.79-0.48c-0.64,0-1.24,0.16-1.78,0.48
			c-0.55,0.32-0.98,0.76-1.3,1.32c-0.32,0.56-0.48,1.18-0.48,1.85c0,0.67,0.16,1.28,0.48,1.84c0.32,0.56,0.75,1,1.3,1.32
			c0.55,0.32,1.14,0.48,1.78,0.48C21.82,19.66,22.41,19.5,22.96,19.18z"/>
	</g>
</g>
</svg>
